<?xml version="1.0" encoding="UTF-8"?><svg id="a" xmlns="http://www.w3.org/2000/svg" viewBox="0 0 500 487.44"><defs><style>.b{fill:#76c481;}.b,.c,.d{fill-rule:evenodd;}.c{fill:#48a655;}.d{fill:#9fd6a7;}</style></defs><path class="d" d="M483.35,206.29c22.91,23.95,22.08,61.94-1.87,84.85l-187.76,179.66c-23.95,22.91-61.94,22.08-84.85-1.87L29.21,281.16c-22.91-23.95-22.08-61.94,1.87-84.85L218.84,16.65c23.95-22.91,61.94-22.08,84.85,1.87l179.66,187.76Z"/><path class="b" d="M390.49,212.19c18.62,19.46,17.94,50.33-1.52,68.95l-152.59,146c-19.46,18.62-50.33,17.94-68.95-1.52L21.44,273.03c-18.62-19.46-17.94-50.33,1.52-68.95L175.54,58.08c19.46-18.62,50.33-17.94,68.95,1.52l146,152.59Z"/><path class="c" d="M286.81,218.78c13.83,14.45,13.32,37.38-1.13,51.2l-113.31,108.41c-14.45,13.83-37.38,13.32-51.2-1.13L12.76,263.96c-13.83-14.45-13.32-37.37,1.13-51.2L127.19,104.34c14.45-13.83,37.38-13.32,51.2,1.13l108.41,113.31Z"/><path class="d" d="M413.48,205.99c21.69,.32,39.02,18.17,38.7,39.86h0c-.32,21.69-18.17,39.02-39.86,38.7l-373.61-5.53C17.01,278.69-.32,260.85,0,239.15h0c.32-21.69,18.17-39.02,39.86-38.7l373.61,5.53Z"/></svg>